HIERARCHY
ROOT root     
{
	OFFSET 0.0000 0.0000 0.0000
	CHANNELS 6 Xposition Yposition Zposition Zrotation Yrotation Xrotation
	JOINT pelvis   
	{
		OFFSET 0.0000 0.0000 0.0000
		CHANNELS 3 Zrotation Yrotation Xrotation
		JOINT thorax   
		{
			OFFSET 0.0000 23.0750 -5.0000
			CHANNELS 3 Zrotation Yrotation Xrotation
			JOINT rclavicle
			{
				OFFSET 0.0000 28.0009 0.0000
				CHANNELS 3 Zrotation Yrotation Xrotation
				JOINT rhumerus 
				{
					OFFSET -18.5725 5.5939 0.0000
					CHANNELS 3 Zrotation Yrotation Xrotation
					JOINT rradius  
					{
						OFFSET -24.8459 0.0000 0.0000
						CHANNELS 3 Zrotation Yrotation Xrotation
						JOINT rhand    
						{
							OFFSET -24.5477 0.0000 0.0000
							CHANNELS 3 Zrotation Yrotation Xrotation
							End Site
							{
								OFFSET -8.1826 0.0000 0.0000
							}
						}
					}
				}
			}
			JOINT lclavicle
			{
				OFFSET 0.0000 28.0009 0.0000
				CHANNELS 3 Zrotation Yrotation Xrotation
				JOINT lhumerus 
				{
					OFFSET 18.5725 5.5939 0.0000
					CHANNELS 3 Zrotation Yrotation Xrotation
					JOINT lradius  
					{
						OFFSET 24.8459 0.0000 0.0000
						CHANNELS 3 Zrotation Yrotation Xrotation
						JOINT lhand    
						{
							OFFSET 24.5477 0.0000 0.0000
							CHANNELS 3 Zrotation Yrotation Xrotation
							End Site
							{
								OFFSET 8.1826 0.0000 0.0000
							}
						}
					}
				}
			}
			JOINT head     
			{
				OFFSET 0.0000 35.2030 0.0000
				CHANNELS 3 Zrotation Yrotation Xrotation
				End Site
				{
					OFFSET 0.0000 11.7343 0.0000
				}
			}
		}
		JOINT rfemur   
		{
			OFFSET -8.2817 0.0000 0.0000
			CHANNELS 3 Zrotation Yrotation Xrotation
			JOINT rtibia   
			{
				OFFSET 0.0000 -43.3627 0.0000
				CHANNELS 3 Zrotation Yrotation Xrotation
				JOINT rfoot    
				{
					OFFSET 0.0000 -38.2947 0.0000
					CHANNELS 3 Zrotation Yrotation Xrotation
					JOINT rtoes    
					{
						OFFSET 0.0000 0.0000 16.6054
						CHANNELS 3 Zrotation Yrotation Xrotation
						End Site
						{
							OFFSET 0.0000 0.0000 5.5351
						}
					}
				}
			}
		}
		JOINT lfemur   
		{
			OFFSET 8.2817 0.0000 0.0000
			CHANNELS 3 Zrotation Yrotation Xrotation
			JOINT ltibia   
			{
				OFFSET 0.0000 -43.3627 0.0000
				CHANNELS 3 Zrotation Yrotation Xrotation
				JOINT lfoot    
				{
					OFFSET 0.0000 -38.2947 0.0000
					CHANNELS 3 Zrotation Yrotation Xrotation
					JOINT ltoes    
					{
						OFFSET 0.0000 0.0000 16.6054
						CHANNELS 3 Zrotation Yrotation Xrotation
						End Site
						{
							OFFSET 0.0000 0.0000 5.5351
						}
					}
				}
			}
		}
	}
}
MOTION
Frames: 9
Frame Time: .0333333
99.351 89.42 12.172 6.88536 84.3416 25.6023 0 -0 0 -1.70041 2.50972 -10.43 23.6905 -5.95841 -6.18119e-05 44.4821 19.3008 22.3944 -6.79901e-06 85.1482 -6.95538e-06 10.5749 6.55747 0.607492 -25.2358 14.5899 0.000135727 -36.4401 2.43005 -17.7586 0 -58.6389 0 8.70744 -0.864902 -0.0657991 -4.60509 5.72454 -7.19639 -2.12774 -2.14364 -1.05949 -0 -0 10.2824 1.62999e-06 7.87297 23.8205 3.1965 -3.16273e-06 -72.7211 -6.31945 6.49786 -34.8126 -0 -0 14.7821 -1.71955e-07 8.37496 0.216594 0.0318997 -7.08863e-08 -41.255 
100.68 89.149 12.299 4.0624 84.404 22.5521 0 -0 0 -1.91514 2.77984 -10.4445 23.6549 -6.04069 -8.13959e-05 44.3933 19.1598 22.3584 -3.84021e-06 85.6634 -4.14229e-06 10.5965 6.50422 0.603792 -24.9845 14.6679 7.72559e-05 -36.7587 3.09382 -18.1607 0 -59.3844 0 8.77003 -0.803596 -0.061599 -3.40646 5.39138 -6.99435 -1.96882 -2.50261 -0.1831 -0 -0 10.6079 -2.36306e-05 8.33093 24.0737 3.41839 -5.83386e-05 -73.6317 -6.39013 6.87953 -34.7682 -0 -0 13.2189 2.0352e-07 7.81764 0.132204 0.0182002 -5.25127e-08 -42.3301 
102.02 88.829 12.426 0.983553 84.4103 19.221 0 -0 0 -2.11442 3.03066 -10.4734 23.658 -6.11942 2.77101e-05 44.2924 19.0233 22.2781 -4.30527e-06 86.1278 -4.60725e-06 10.5588 6.47845 0.599306 -24.7252 14.7315 1.94438e-05 -37.0712 3.86755 -18.4999 -7.43754e-07 -60.2314 4.31415e-07 8.81226 -0.7354 -0.0567008 -2.19832 5.0395 -6.73763 -1.8392 -2.86793 0.691304 -0 -0 11.0463 1.32287e-05 8.93232 24.1836 3.68407 -4.33122e-05 -74.7611 -6.42242 7.30427 -34.7544 -0 -0 12.0945 -4.50685e-07 7.29132 0.242798 0.0311 3.0942e-07 -43.2963 
103.37 88.464 12.547 -1.99211 84.3755 15.982 0 -0 0 -2.32738 3.2393 -10.5412 23.7185 -6.19142 8.32264e-05 44.1712 18.9002 22.1628 -2.9241e-06 86.489 -3.10903e-06 10.4706 6.48556 0.594895 -24.4673 14.7881 -0.000119827 -37.3558 4.74054 -18.7736 0 -61.159 0 8.83477 -0.659501 -0.0510008 -0.984214 4.67732 -6.41866 -1.77504 -3.23374 1.53166 -0 -0 11.606 -3.16284e-05 9.72882 24.162 4.01444 2.95589e-05 -76.1353 -6.39126 7.66779 -34.7824 -0 -0 11.4322 6.53722e-07 6.88221 0.581407 0.0702 1.23541e-07 -44.1661 
104.72 88.06 12.656 -4.59819 84.3045 13.1287 0 -0 0 -2.57292 3.38669 -10.6744 23.8434 -6.25008 5.91624e-05 44.0323 18.7911 22.0128 -7.35397e-06 86.7809 -7.78094e-06 10.3393 6.52542 0.591008 -24.2159 14.8402 6.18479e-05 -37.6018 5.70084 -18.984 0 -62.1385 0 8.83917 -0.577901 -0.0447008 0.227811 4.31133 -6.03191 -1.79621 -3.58638 2.29868 -0 -0 12.3011 7.30092e-05 10.7444 24.0236 4.41719 -2.03927e-05 -77.7006 -6.29714 7.92395 -34.895 -0 -0 11.2855 -1.03116e-06 6.61377 1.12958 0.130997 -6.99765e-07 -44.8565 
106.07 87.623 12.743 -6.46796 84.2049 11.0251 0 -0 0 -2.88598 3.44487 -10.8538 24.0427 -6.30243 -2.28791e-05 43.8845 18.717 21.8344 -1.12794e-05 86.943 -1.13172e-05 10.1616 6.59651 0.587111 -23.9896 14.9012 -9.29795e-05 -37.7796 6.70377 -19.1285 4.94561e-07 -63.136 -8.04904e-07 8.83146 -0.483503 -0.0373007 1.42893 3.9471 -5.58864 -1.94906 -3.97374 2.98166 -0 -0 13.159 4.85572e-05 12.0351 23.8017 4.9177 -3.05707e-05 -79.3965 -6.14347 7.9911 -35.0645 -0 -0 11.635 -3.01053e-06 6.54145 1.88163 0.215705 1.11239e-06 -45.3775 
107.41 87.161 12.808 -7.58083 84.1166 9.71132 0 -0 0 -3.26368 3.4121 -11.1043 24.2997 -6.3371 7.01552e-05 43.756 18.6498 21.6203 -2.97827e-06 87.0117 -2.82727e-06 9.93784 6.68847 0.582192 -23.7847 14.9723 -9.81194e-05 -37.8996 7.72042 -19.2089 7.33482e-07 -64.1017 -1.17151e-06 8.81512 -0.384005 -0.0295998 2.60198 3.58863 -5.09076 -2.22774 -4.37422 3.52951 -0 -0 14.2043 0.000112547 13.5549 23.5025 5.49171 5.07469e-05 -81.0341 -5.9807 7.93173 -35.3714 -0 -0 12.5558 2.56629e-06 6.57607 2.74304 0.316099 -1.22453e-06 -45.5165 
108.72 86.682 12.849 -7.89451 84.0292 9.23212 0 -0 0 -3.70834 3.28493 -11.4074 24.6019 -6.35974 1.682e-05 43.675 18.5876 21.3697 -1.07531e-05 86.998 -1.09531e-05 9.65736 6.79176 0.57441 -23.615 15.0597 -0.000180018 -37.9589 8.69998 -19.2252 0 -64.9912 0 8.79883 -0.275902 -0.0212003 3.72689 3.24016 -4.55436 -2.64211 -4.81309 3.92584 -0 -0 15.4688 0.000116437 15.2643 23.1552 6.12478 3.8363e-05 -82.4697 -5.8484 7.77353 -35.8195 -0 -0 14.0417 -1.70344e-06 6.66778 3.63411 0.424502 -5.7635e-06 -45.1319 
110 86.192 12.864 -7.45685 83.9509 9.53251 0 -0 0 -4.20584 3.07414 -11.7381 24.9194 -6.37136 2.25003e-05 43.6787 18.5163 21.0773 -4.64621e-06 86.8732 -4.90768e-06 9.30706 6.8936 0.561806 -23.4824 15.1682 -0.00011275 -37.968 9.58694 -19.176 5.64288e-07 -65.7549 -8.73023e-07 8.78987 -0.159497 -0.0122997 4.77971 2.90461 -3.999 -3.1866 -5.30514 4.15864 -0 -0 16.9793 -0.000198626 17.0761 22.7873 6.78531 8.27809e-06 -83.5878 -5.78217 7.56901 -36.4073 -0 -0 16.0666 5.64593e-06 6.75512 4.45122 0.5267 -2.09703e-08 -44.0249 
